<svg width="512" height="512" viewBox="0 0 512 512" fill="none" xmlns="http://www.w3.org/2000/svg">
  <rect width="512" height="512" rx="112" fill="#101820"/>
  <path d="M117 142C117 128.745 127.745 118 141 118H371C384.255 118 395 128.745 395 142V370C395 383.255 384.255 394 371 394H141C127.745 394 117 383.255 117 370V142Z" fill="#F7FBFF"/>
  <path d="M151 159C151 153.477 155.477 149 161 149H351C356.523 149 361 153.477 361 159V269C361 274.523 356.523 279 351 279H161C155.477 279 151 274.523 151 269V159Z" fill="#D8F2FF"/>
  <path d="M151 265L205.788 210.212C211.646 204.354 221.142 204.354 227 210.212L284 267.212C289.858 273.071 299.355 273.071 305.213 267.212L326 246.426C331.858 240.568 341.355 240.568 347.213 246.426L361 260.213V335C361 340.523 356.523 345 351 345H161C155.477 345 151 340.523 151 335V265Z" fill="#15B8A6"/>
  <path d="M198 344H315" stroke="#101820" stroke-width="22" stroke-linecap="round"/>
  <circle cx="302" cy="199" r="28" fill="#FFB84D"/>
  <path d="M383.5 106L394.624 136.376L425 147.5L394.624 158.624L383.5 189L372.376 158.624L342 147.5L372.376 136.376L383.5 106Z" fill="#5B8CFF"/>
  <path d="M129 304L149.5 318L170 304L156 324.5L170 345L149.5 331L129 345L143 324.5L129 304Z" fill="#FFB84D"/>
</svg>
